<svg xmlns="http://www.w3.org/2000/svg" width="220.857" height="192.716" viewBox="0 0 220.857 192.716">
  <g id="Group_389" data-name="Group 389" transform="translate(-2624.23 -1564.204)">
    <rect id="Rectangle_186" data-name="Rectangle 186" width="23.924" height="0.128" transform="translate(2705.837 1728.27)" fill="#ebebeb"/>
    <rect id="Rectangle_187" data-name="Rectangle 187" width="16.72" height="0.128" transform="translate(2679.386 1734.396)" fill="#ebebeb"/>
    <rect id="Rectangle_189" data-name="Rectangle 189" width="21.259" height="0.128" transform="translate(2818.324 1733.539)" fill="#ebebeb"/>
    <rect id="Rectangle_190" data-name="Rectangle 190" width="22.014" height="0.128" transform="translate(2759.99 1731.384)" fill="#ebebeb"/>
    <path id="Path_149" data-name="Path 149" d="M389.226,90.6a.169.169,0,0,0,.082-.026c.077-.046,7.791-4.636,10.247-4.636s9.813,4.595,9.889,4.636a.158.158,0,0,0,.219-.051.163.163,0,0,0-.051-.22c-.306-.194-7.515-4.682-10.058-4.682s-10.093,4.488-10.41,4.682a.158.158,0,0,0-.056.22A.169.169,0,0,0,389.226,90.6Z" transform="translate(2428.032 1487.655)" fill="#ebebeb"/>
    <rect id="Rectangle_194" data-name="Rectangle 194" width="27.6" height="31.756" transform="translate(2802.304 1634.014) rotate(180)" fill="#ebebeb"/>
    <path id="Path_152" data-name="Path 152" d="M311.756,141.607a.163.163,0,0,0,.082,0c.077-.046,7.791-4.636,10.247-4.636s9.813,4.595,9.889,4.631a.158.158,0,0,0,.22-.051.163.163,0,0,0-.051-.22c-.306-.189-7.515-4.682-10.058-4.682s-10.093,4.488-10.41,4.682a.145.145,0,0,0,.082.276Z" transform="translate(2465.95 1462.678)" fill="#ebebeb"/>
    <rect id="Rectangle_195" data-name="Rectangle 195" width="29.872" height="31.756" transform="translate(2801.441 1634.014) rotate(180)" fill="#f5f5f5"/>
    <rect id="Rectangle_196" data-name="Rectangle 196" width="26.747" height="24.863" transform="translate(2798.934 1604.766) rotate(90)" fill="#fff"/>
    <path id="Path_153" data-name="Path 153" d="M318.646,181.143a3.063,3.063,0,1,0-3.063,3.063A3.063,3.063,0,0,0,318.646,181.143Z" transform="translate(2465.498 1442.4)" fill="#f5f5f5"/>
    <path id="Path_154" data-name="Path 154" d="M339.816,159.973a3.063,3.063,0,1,0-3.063,3.063A3.063,3.063,0,0,0,339.816,159.973Z" transform="translate(2455.136 1452.762)" fill="#f5f5f5"/>
    <path id="Path_155" data-name="Path 155" d="M333.77,181.143a3.063,3.063,0,1,1,3.063,3.063,3.063,3.063,0,0,1-3.063-3.063Z" transform="translate(2455.096 1442.4)" fill="#f5f5f5"/>
    <path id="Path_156" data-name="Path 156" d="M312.59,159.973a3.063,3.063,0,1,1,3.063,3.063,3.063,3.063,0,0,1-3.063-3.063Z" transform="translate(2465.463 1452.762)" fill="#f5f5f5"/>
    <path id="Path_162" data-name="Path 162" d="M332.842,262.509h-.368a1.476,1.476,0,0,0,.031-.209c0-1.532-1.874-2.782-4.192-2.788a2.425,2.425,0,0,0,.225-.99,3.085,3.085,0,0,0-3.3-2.793,3.773,3.773,0,0,0-1.45.3,2.76,2.76,0,0,0,.036-.3c0-1.991-1.909-3.61-4.268-3.61a4.2,4.2,0,0,0-4.115,2.685,6.519,6.519,0,0,0-4.814-2,6.346,6.346,0,0,0-5.31,2.624,3.543,3.543,0,0,0-2.522-1.021,3.073,3.073,0,0,0-3.3,2.788,2.328,2.328,0,0,0,.225.99c-2.318,0-4.2,1.251-4.2,2.793a2.04,2.04,0,0,0,.066.424h-.4c-3.063,0-5.534,1.021-5.534,2.333s2.476,2.328,5.534,2.328a11.171,11.171,0,0,0,3.334-.47c1.256,1.782,5.172,3.063,9.807,3.063,5.35,0,9.741-1.731,10.211-3.936a13.784,13.784,0,0,0,4.789.776,14.987,14.987,0,0,0,4-.511h.026c.214,1.2,2.6,2.155,5.514,2.155,3.063,0,5.539-1.047,5.539-2.333S335.9,262.509,332.842,262.509Z" transform="translate(2476.691 1406.16)" fill="#e6e6e6"/>
    <path id="Path_163" data-name="Path 163" d="M331.744,275.23A4.253,4.253,0,0,1,336,279.483h0c0,4.707-11.671,8.562-25.935,8.562H297.185c-14.264,0-25.935-3.855-25.935-8.562h0a4.253,4.253,0,0,1,4.253-4.253Z" transform="translate(2485.698 1394.849)" fill="#f0f0f0"/>
    <rect id="Rectangle_203" data-name="Rectangle 203" width="22.566" height="41.9" transform="translate(2721.649 1724.793) rotate(180)" fill="#e6e6e6"/>
    <path id="Path_164" data-name="Path 164" d="M162.189,378.646H157.9V374.73h8.781Z" transform="translate(2541.178 1346.147)" fill="#f0f0f0"/>
    <rect id="Rectangle_205" data-name="Rectangle 205" width="126.154" height="40.164" transform="translate(2825.237 1723.063) rotate(180)" fill="#f0f0f0"/>
    <path id="Path_165" data-name="Path 165" d="M392.3,378.646h4.283V374.73H387.81Z" transform="translate(2428.646 1346.147)" fill="#f0f0f0"/>
    <path id="Path_166" data-name="Path 166" d="M283.672,307.2v15.316H164.716V307.2H283.672m.271-.271H164.42v15.862h119.5V306.93Z" transform="translate(2537.987 1379.333)" fill="#fafafa"/>
    <path id="Path_167" data-name="Path 167" d="M283.672,341.591v15.316H164.716V341.591H283.672m.271-.271H164.42v15.873h119.5V341.32Z" transform="translate(2537.987 1362.5)" fill="#fafafa"/>
    <path id="Path_168" data-name="Path 168" d="M258.383,308.478h22a1.583,1.583,0,0,0,1.583-1.588H256.8a1.583,1.583,0,0,0,1.583,1.588Z" transform="translate(2492.77 1379.353)" fill="#fafafa"/>
    <path id="Path_169" data-name="Path 169" d="M258.383,342.9h22a1.583,1.583,0,0,0,1.583-1.583H256.8A1.583,1.583,0,0,0,258.383,342.9Z" transform="translate(2492.77 1362.5)" fill="#fafafa"/>
    <g id="freepik--Shadow--inject-39" transform="translate(2647.11 1736.291)">
      <ellipse id="freepik--path--inject-39" cx="98.989" cy="5.779" rx="98.989" ry="5.779" transform="translate(0 0)" fill="#efefef"/>
    </g>
    <g id="freepik--Safe--inject-39" transform="translate(2668.028 1575.763)">
      <path id="Path_170" data-name="Path 170" d="M131.474,166.7l-.454-.235a72.574,72.574,0,0,1,15.725-20.57l.347.378A72.073,72.073,0,0,0,131.474,166.7Z" transform="translate(-113.693 -117.613)" fill="#407bff"/>
      <path id="Path_171" data-name="Path 171" d="M118.9,212.076l-.511-.1a72.328,72.328,0,0,1,3.033-10.614l.48.179a71.289,71.289,0,0,0-3,10.537Z" transform="translate(-107.511 -144.758)" fill="#407bff"/>
      <circle id="Ellipse_42" data-name="Ellipse 42" cx="57.737" cy="57.737" r="57.737" transform="translate(0 81.653) rotate(-45)" fill="#fafafa" opacity="0.9"/>
      <g id="Group_387" data-name="Group 387" transform="translate(25.312 88.169)" opacity="0.4">
        <path id="Path_172" data-name="Path 172" d="M163.975,307.5H150.4l2.624-6.443h8.327Z" transform="translate(-148.491 -281.726)" fill="#407bff"/>
        <path id="Path_173" data-name="Path 173" d="M163.975,307.5H150.4l2.624-6.443h8.327Z" transform="translate(-148.491 -281.726)" fill="#fafafa" opacity="0.2"/>
        <path id="Path_174" data-name="Path 174" d="M195.105,307.5H174.474l-2.624-6.443h20.631Z" transform="translate(-158.99 -281.726)" fill="#407bff"/>
        <path id="Path_175" data-name="Path 175" d="M195.105,307.5H174.474l-2.624-6.443h20.631Z" transform="translate(-158.99 -281.726)" opacity="0.3"/>
        <path id="Path_176" data-name="Path 176" d="M197.91,307.5H184.33l2.624-6.443h8.332Z" transform="translate(-165.098 -281.726)" fill="#407bff"/>
        <path id="Path_177" data-name="Path 177" d="M197.91,307.5H184.33l2.624-6.443h8.332Z" transform="translate(-165.098 -281.726)" fill="#fafafa" opacity="0.2"/>
        <path id="Path_178" data-name="Path 178" d="M229.04,307.5H208.414l-2.624-6.443h20.626Z" transform="translate(-175.602 -281.726)" fill="#407bff"/>
        <path id="Path_179" data-name="Path 179" d="M229.04,307.5H208.414l-2.624-6.443h20.626Z" transform="translate(-175.602 -281.726)" opacity="0.3"/>
        <path id="Path_180" data-name="Path 180" d="M231.845,307.5H218.27l2.624-6.443h8.327Z" transform="translate(-181.71 -281.726)" fill="#407bff"/>
        <path id="Path_181" data-name="Path 181" d="M231.845,307.5H218.27l2.624-6.443h8.327Z" transform="translate(-181.71 -281.726)" fill="#fafafa" opacity="0.2"/>
        <path id="Path_182" data-name="Path 182" d="M262.97,307.5H242.344l-2.624-6.443h20.631Z" transform="translate(-192.209 -281.726)" fill="#407bff"/>
        <path id="Path_183" data-name="Path 183" d="M262.97,307.5H242.344l-2.624-6.443h20.631Z" transform="translate(-192.209 -281.726)" opacity="0.3"/>
        <path id="Path_184" data-name="Path 184" d="M265.775,307.5H252.2l2.624-6.443h8.327Z" transform="translate(-198.318 -281.726)" fill="#407bff"/>
        <path id="Path_185" data-name="Path 185" d="M265.775,307.5H252.2l2.624-6.443h8.327Z" transform="translate(-198.318 -281.726)" fill="#fafafa" opacity="0.2"/>
        <path id="Path_186" data-name="Path 186" d="M296.905,307.5H276.274l-2.624-6.443h20.631Z" transform="translate(-208.817 -281.726)" fill="#407bff"/>
        <path id="Path_187" data-name="Path 187" d="M296.905,307.5H276.274l-2.624-6.443h20.631Z" transform="translate(-208.817 -281.726)" opacity="0.3"/>
        <path id="Path_188" data-name="Path 188" d="M299.71,307.5H286.13l2.624-6.443h8.332Z" transform="translate(-214.925 -281.726)" fill="#407bff"/>
        <path id="Path_189" data-name="Path 189" d="M299.71,307.5H286.13l2.624-6.443h8.332Z" transform="translate(-214.925 -281.726)" fill="#fafafa" opacity="0.2"/>
        <path id="Path_190" data-name="Path 190" d="M321.221,307.5q.985-3.2,1.787-6.443H307.59l2.624,6.443Z" transform="translate(-225.429 -281.726)" fill="#407bff"/>
        <path id="Path_191" data-name="Path 191" d="M321.221,307.5q.985-3.2,1.787-6.443H307.59l2.624,6.443Z" transform="translate(-225.429 -281.726)" opacity="0.3"/>
        <path id="Path_192" data-name="Path 192" d="M329.117,301.06h-6.423L320.07,307.5h7.26Q328.32,304.3,329.117,301.06Z" transform="translate(-231.537 -281.726)" fill="#407bff"/>
        <path id="Path_193" data-name="Path 193" d="M329.117,301.06h-6.423L320.07,307.5h7.26Q328.32,304.3,329.117,301.06Z" transform="translate(-231.537 -281.726)" fill="#fafafa" opacity="0.2"/>
        <path id="Path_194" data-name="Path 194" d="M174.34,294.878H160.76l2.624-6.448h8.332Z" transform="translate(-153.561 -275.544)" fill="#407bff"/>
        <path id="Path_195" data-name="Path 195" d="M174.34,294.878H160.76l2.624-6.448h8.332Z" transform="translate(-153.561 -275.544)" fill="#fafafa" opacity="0.2"/>
        <path id="Path_196" data-name="Path 196" d="M205.47,294.878H184.844l-2.624-6.448h20.626Z" transform="translate(-164.065 -275.544)" fill="#407bff"/>
        <path id="Path_197" data-name="Path 197" d="M205.47,294.878H184.844l-2.624-6.448h20.626Z" transform="translate(-164.065 -275.544)" opacity="0.3"/>
        <path id="Path_198" data-name="Path 198" d="M208.275,294.878H194.7l2.624-6.448h8.327Z" transform="translate(-170.174 -275.544)" fill="#407bff"/>
        <path id="Path_199" data-name="Path 199" d="M208.275,294.878H194.7l2.624-6.448h8.327Z" transform="translate(-170.174 -275.544)" fill="#fafafa" opacity="0.2"/>
        <path id="Path_200" data-name="Path 200" d="M239.4,294.878H218.774l-2.624-6.448h20.631Z" transform="translate(-180.673 -275.544)" fill="#407bff"/>
        <path id="Path_201" data-name="Path 201" d="M239.4,294.878H218.774l-2.624-6.448h20.631Z" transform="translate(-180.673 -275.544)" opacity="0.3"/>
        <path id="Path_202" data-name="Path 202" d="M242.205,294.878H228.63l2.624-6.448h8.327Z" transform="translate(-186.781 -275.544)" fill="#407bff"/>
        <path id="Path_203" data-name="Path 203" d="M242.205,294.878H228.63l2.624-6.448h8.327Z" transform="translate(-186.781 -275.544)" fill="#fafafa" opacity="0.2"/>
        <path id="Path_204" data-name="Path 204" d="M273.335,294.878H252.7l-2.624-6.448h20.631Z" transform="translate(-197.28 -275.544)" fill="#407bff"/>
        <path id="Path_205" data-name="Path 205" d="M273.335,294.878H252.7l-2.624-6.448h20.631Z" transform="translate(-197.28 -275.544)" opacity="0.3"/>
        <path id="Path_206" data-name="Path 206" d="M276.14,294.878H262.56l2.624-6.448h8.332Z" transform="translate(-203.388 -275.544)" fill="#407bff"/>
        <path id="Path_207" data-name="Path 207" d="M276.14,294.878H262.56l2.624-6.448h8.332Z" transform="translate(-203.388 -275.544)" fill="#fafafa" opacity="0.2"/>
        <path id="Path_208" data-name="Path 208" d="M307.27,294.878H286.644l-2.624-6.448h20.626Z" transform="translate(-213.892 -275.544)" fill="#407bff"/>
        <path id="Path_209" data-name="Path 209" d="M307.27,294.878H286.644l-2.624-6.448h20.626Z" transform="translate(-213.892 -275.544)" opacity="0.3"/>
        <path id="Path_210" data-name="Path 210" d="M310.075,294.878H296.5l2.624-6.448h8.327Z" transform="translate(-220.001 -275.544)" fill="#407bff"/>
        <path id="Path_211" data-name="Path 211" d="M310.075,294.878H296.5l2.624-6.448h8.327Z" transform="translate(-220.001 -275.544)" fill="#fafafa" opacity="0.2"/>
        <path id="Path_212" data-name="Path 212" d="M328.1,294.878c.511-2.139,1-4.283,1.394-6.448H318l2.624,6.448Z" transform="translate(-230.524 -275.544)" fill="#407bff"/>
        <path id="Path_213" data-name="Path 213" d="M328.1,294.878c.511-2.139,1-4.283,1.394-6.448H318l2.624,6.448Z" transform="translate(-230.524 -275.544)" opacity="0.3"/>
        <path id="Path_214" data-name="Path 214" d="M335.581,288.43h-2.527l-2.624,6.448h3.758C334.713,292.739,335.183,290.595,335.581,288.43Z" transform="translate(-236.608 -275.544)" fill="#407bff"/>
        <path id="Path_215" data-name="Path 215" d="M335.581,288.43h-2.527l-2.624,6.448h3.758C334.713,292.739,335.183,290.595,335.581,288.43Z" transform="translate(-236.608 -275.544)" fill="#fafafa" opacity="0.2"/>
        <path id="Path_216" data-name="Path 216" d="M183.225,282.253H169.65l2.624-6.443H180.6Z" transform="translate(-157.913 -269.367)" fill="#407bff"/>
        <path id="Path_217" data-name="Path 217" d="M183.225,282.253H169.65l2.624-6.443H180.6Z" transform="translate(-157.913 -269.367)" fill="#fafafa" opacity="0.2"/>
        <path id="Path_218" data-name="Path 218" d="M214.355,282.253H193.724L191.1,275.81h20.631Z" transform="translate(-168.412 -269.367)" fill="#407bff"/>
        <path id="Path_219" data-name="Path 219" d="M214.355,282.253H193.724L191.1,275.81h20.631Z" transform="translate(-168.412 -269.367)" opacity="0.3"/>
        <path id="Path_220" data-name="Path 220" d="M217.16,282.253H203.58l2.624-6.443h8.327Z" transform="translate(-174.52 -269.367)" fill="#407bff"/>
        <path id="Path_221" data-name="Path 221" d="M217.16,282.253H203.58l2.624-6.443h8.327Z" transform="translate(-174.52 -269.367)" fill="#fafafa" opacity="0.2"/>
        <path id="Path_222" data-name="Path 222" d="M248.285,282.253H227.659l-2.629-6.443h20.631Z" transform="translate(-185.019 -269.367)" fill="#407bff"/>
        <path id="Path_223" data-name="Path 223" d="M248.285,282.253H227.659l-2.629-6.443h20.631Z" transform="translate(-185.019 -269.367)" opacity="0.3"/>
        <path id="Path_224" data-name="Path 224" d="M251.1,282.253H237.52l2.624-6.443h8.327Z" transform="translate(-191.132 -269.367)" fill="#407bff"/>
        <path id="Path_225" data-name="Path 225" d="M251.1,282.253H237.52l2.624-6.443h8.327Z" transform="translate(-191.132 -269.367)" fill="#fafafa" opacity="0.2"/>
        <path id="Path_226" data-name="Path 226" d="M282.22,282.253H261.594l-2.624-6.443H279.6Z" transform="translate(-201.631 -269.367)" fill="#407bff"/>
        <path id="Path_227" data-name="Path 227" d="M282.22,282.253H261.594l-2.624-6.443H279.6Z" transform="translate(-201.631 -269.367)" opacity="0.3"/>
        <path id="Path_228" data-name="Path 228" d="M285.025,282.253H271.45l2.624-6.443H282.4Z" transform="translate(-207.74 -269.367)" fill="#407bff"/>
        <path id="Path_229" data-name="Path 229" d="M285.025,282.253H271.45l2.624-6.443H282.4Z" transform="translate(-207.74 -269.367)" fill="#fafafa" opacity="0.2"/>
        <path id="Path_230" data-name="Path 230" d="M316.155,282.253H295.524L292.9,275.81h20.631Z" transform="translate(-218.239 -269.367)" fill="#407bff"/>
        <path id="Path_231" data-name="Path 231" d="M316.155,282.253H295.524L292.9,275.81h20.631Z" transform="translate(-218.239 -269.367)" opacity="0.3"/>
        <path id="Path_232" data-name="Path 232" d="M318.96,282.253H305.38L308,275.81h8.332Z" transform="translate(-224.347 -269.367)" fill="#407bff"/>
        <path id="Path_233" data-name="Path 233" d="M318.96,282.253H305.38L308,275.81h8.332Z" transform="translate(-224.347 -269.367)" fill="#fafafa" opacity="0.2"/>
        <path id="Path_234" data-name="Path 234" d="M333.824,282.253q.6-3.2,1.021-6.443H326.84l2.634,6.443Z" transform="translate(-234.851 -269.367)" fill="#407bff"/>
        <path id="Path_235" data-name="Path 235" d="M333.824,282.253q.6-3.2,1.021-6.443H326.84l2.634,6.443Z" transform="translate(-234.851 -269.367)" opacity="0.3"/>
        <path id="Path_236" data-name="Path 236" d="M340.387,283.29l-1.067,2.624h.613Q340.178,284.607,340.387,283.29Z" transform="translate(-240.959 -273.028)" fill="#407bff"/>
        <path id="Path_237" data-name="Path 237" d="M340.387,283.29l-1.067,2.624h.613Q340.178,284.607,340.387,283.29Z" transform="translate(-240.959 -273.028)" fill="#fafafa" opacity="0.2"/>
        <path id="Path_238" data-name="Path 238" d="M193.585,269.633H180.01l2.624-6.443h8.332Z" transform="translate(-162.984 -263.19)" fill="#407bff"/>
        <path id="Path_239" data-name="Path 239" d="M193.585,269.633H180.01l2.624-6.443h8.332Z" transform="translate(-162.984 -263.19)" fill="#fafafa" opacity="0.2"/>
        <path id="Path_240" data-name="Path 240" d="M224.72,269.633H204.089l-2.619-6.443H222.1Z" transform="translate(-173.487 -263.19)" fill="#407bff"/>
        <path id="Path_241" data-name="Path 241" d="M224.72,269.633H204.089l-2.619-6.443H222.1Z" transform="translate(-173.487 -263.19)" opacity="0.3"/>
        <path id="Path_242" data-name="Path 242" d="M227.525,269.633H213.95l2.624-6.443H224.9Z" transform="translate(-179.596 -263.19)" fill="#407bff"/>
        <path id="Path_243" data-name="Path 243" d="M227.525,269.633H213.95l2.624-6.443H224.9Z" transform="translate(-179.596 -263.19)" fill="#fafafa" opacity="0.2"/>
        <path id="Path_244" data-name="Path 244" d="M258.65,269.633H238.024L235.4,263.19h20.631Z" transform="translate(-190.095 -263.19)" fill="#407bff"/>
        <path id="Path_245" data-name="Path 245" d="M258.65,269.633H238.024L235.4,263.19h20.631Z" transform="translate(-190.095 -263.19)" opacity="0.3"/>
        <path id="Path_246" data-name="Path 246" d="M261.455,269.633H247.88l2.624-6.443h8.327Z" transform="translate(-196.203 -263.19)" fill="#407bff"/>
        <path id="Path_247" data-name="Path 247" d="M261.455,269.633H247.88l2.624-6.443h8.327Z" transform="translate(-196.203 -263.19)" fill="#fafafa" opacity="0.2"/>
        <path id="Path_248" data-name="Path 248" d="M292.585,269.633H271.954l-2.624-6.443h20.631Z" transform="translate(-206.702 -263.19)" fill="#407bff"/>
        <path id="Path_249" data-name="Path 249" d="M292.585,269.633H271.954l-2.624-6.443h20.631Z" transform="translate(-206.702 -263.19)" opacity="0.3"/>
        <path id="Path_250" data-name="Path 250" d="M295.39,269.633H281.81l2.624-6.443h8.332Z" transform="translate(-212.811 -263.19)" fill="#407bff"/>
        <path id="Path_251" data-name="Path 251" d="M295.39,269.633H281.81l2.624-6.443h8.332Z" transform="translate(-212.811 -263.19)" fill="#fafafa" opacity="0.2"/>
        <path id="Path_252" data-name="Path 252" d="M323.288,269.633q.4-3.211.587-6.443H303.27l2.624,6.443Z" transform="translate(-223.314 -263.19)" fill="#407bff"/>
        <path id="Path_253" data-name="Path 253" d="M323.288,269.633q.4-3.211.587-6.443H303.27l2.624,6.443Z" transform="translate(-223.314 -263.19)" opacity="0.3"/>
        <path id="Path_254" data-name="Path 254" d="M329.325,269.633H315.75l2.624-6.443H326.7Z" transform="translate(-229.423 -263.19)" fill="#407bff"/>
        <path id="Path_255" data-name="Path 255" d="M329.325,269.633H315.75l2.624-6.443H326.7Z" transform="translate(-229.423 -263.19)" fill="#fafafa" opacity="0.2"/>
        <path id="Path_256" data-name="Path 256" d="M339.9,269.633q.4-3.211.587-6.443H337.2l2.624,6.443Z" transform="translate(-239.922 -263.19)" fill="#407bff"/>
        <path id="Path_257" data-name="Path 257" d="M339.9,269.633q.4-3.211.587-6.443H337.2l2.624,6.443Z" transform="translate(-239.922 -263.19)" opacity="0.3"/>
        <path id="Path_258" data-name="Path 258" d="M192.781,357.993h4.636l-2.624-6.443H184.51a67.78,67.78,0,0,1,8.271,6.443Z" transform="translate(-165.186 -306.439)" fill="#407bff"/>
        <path id="Path_259" data-name="Path 259" d="M192.781,357.993h4.636l-2.624-6.443H184.51a67.78,67.78,0,0,1,8.271,6.443Z" transform="translate(-165.186 -306.439)" opacity="0.3"/>
        <path id="Path_260" data-name="Path 260" d="M192.781,357.993h1.332l-2.624-6.443H184.51a67.78,67.78,0,0,1,8.271,6.443Z" transform="translate(-165.186 -306.439)" fill="#407bff"/>
        <path id="Path_261" data-name="Path 261" d="M192.781,357.993h1.332l-2.624-6.443H184.51a67.78,67.78,0,0,1,8.271,6.443Z" transform="translate(-165.186 -306.439)" fill="#fafafa" opacity="0.2"/>
        <path id="Path_262" data-name="Path 262" d="M221.43,357.993H200.8l-2.624-6.443h20.626Z" transform="translate(-171.877 -306.439)" fill="#407bff"/>
        <path id="Path_263" data-name="Path 263" d="M221.43,357.993H200.8l-2.624-6.443h20.626Z" transform="translate(-171.877 -306.439)" opacity="0.3"/>
        <path id="Path_264" data-name="Path 264" d="M224.235,357.993H210.66l2.624-6.443h8.327Z" transform="translate(-177.985 -306.439)" fill="#407bff"/>
        <path id="Path_265" data-name="Path 265" d="M224.235,357.993H210.66l2.624-6.443h8.327Z" transform="translate(-177.985 -306.439)" fill="#fafafa" opacity="0.2"/>
        <path id="Path_266" data-name="Path 266" d="M255.36,357.993H234.734l-2.624-6.443h20.626Z" transform="translate(-188.484 -306.439)" fill="#407bff"/>
        <path id="Path_267" data-name="Path 267" d="M255.36,357.993H234.734l-2.624-6.443h20.626Z" transform="translate(-188.484 -306.439)" opacity="0.3"/>
        <path id="Path_268" data-name="Path 268" d="M258.165,357.993H244.59l2.624-6.443h8.327Z" transform="translate(-194.593 -306.439)" fill="#407bff"/>
        <path id="Path_269" data-name="Path 269" d="M258.165,357.993H244.59l2.624-6.443h8.327Z" transform="translate(-194.593 -306.439)" fill="#fafafa" opacity="0.2"/>
        <path id="Path_270" data-name="Path 270" d="M289.163,357.717l-2.512-6.167H266l2.624,6.443h20.233A3.254,3.254,0,0,0,289.163,357.717Z" transform="translate(-205.072 -306.439)" fill="#407bff"/>
        <path id="Path_271" data-name="Path 271" d="M289.163,357.717l-2.512-6.167H266l2.624,6.443h20.233A3.254,3.254,0,0,0,289.163,357.717Z" transform="translate(-205.072 -306.439)" opacity="0.3"/>
        <path id="Path_272" data-name="Path 272" d="M292.1,357.993H278.52l2.624-6.443h8.332Z" transform="translate(-211.2 -306.439)" fill="#407bff"/>
        <path id="Path_273" data-name="Path 273" d="M292.1,357.993H278.52l2.624-6.443h8.332Z" transform="translate(-211.2 -306.439)" fill="#fafafa" opacity="0.2"/>
        <path id="Path_274" data-name="Path 274" d="M305.519,357.993a24.026,24.026,0,0,0,4.661-6.443H300l2.624,6.443Z" transform="translate(-221.714 -306.439)" fill="#407bff"/>
        <path id="Path_275" data-name="Path 275" d="M305.519,357.993a24.026,24.026,0,0,0,4.661-6.443H300l2.624,6.443Z" transform="translate(-221.714 -306.439)" opacity="0.3"/>
        <path id="Path_276" data-name="Path 276" d="M316.9,351.55H315.7l-1.981,4.86A27.119,27.119,0,0,0,316.9,351.55Z" transform="translate(-228.429 -306.439)" fill="#407bff"/>
        <path id="Path_277" data-name="Path 277" d="M316.9,351.55H315.7l-1.981,4.86A27.119,27.119,0,0,0,316.9,351.55Z" transform="translate(-228.429 -306.439)" fill="#fafafa" opacity="0.2"/>
        <path id="Path_278" data-name="Path 278" d="M168.522,339.65c2.456,2.078,5.105,3.89,7.755,5.723h.873l-2.624-6.443H167.69C167.966,339.17,168.241,339.415,168.522,339.65Z" transform="translate(-156.953 -300.262)" fill="#407bff"/>
        <path id="Path_279" data-name="Path 279" d="M168.522,339.65c2.456,2.078,5.105,3.89,7.755,5.723h.873l-2.624-6.443H167.69C167.966,339.17,168.241,339.415,168.522,339.65Z" transform="translate(-156.953 -300.262)" opacity="0.3"/>
        <path id="Path_280" data-name="Path 280" d="M168.522,339.63c1.4,1.184,2.864,2.282,4.355,3.344l-1.654-4.084H167.69C167.966,339.15,168.241,339.4,168.522,339.63Z" transform="translate(-156.953 -300.242)" fill="#407bff"/>
        <path id="Path_281" data-name="Path 281" d="M168.522,339.63c1.4,1.184,2.864,2.282,4.355,3.344l-1.654-4.084H167.69C167.966,339.15,168.241,339.4,168.522,339.63Z" transform="translate(-156.953 -300.242)" fill="#fafafa" opacity="0.2"/>
        <path id="Path_282" data-name="Path 282" d="M179.659,345.373h18.2l-2.629-6.443H174.6l1.654,4.084C177.382,343.8,178.526,344.582,179.659,345.373Z" transform="translate(-160.336 -300.262)" fill="#407bff"/>
        <path id="Path_283" data-name="Path 283" d="M179.659,345.373h18.2l-2.629-6.443H174.6l1.654,4.084C177.382,343.8,178.526,344.582,179.659,345.373Z" transform="translate(-160.336 -300.262)" opacity="0.3"/>
        <path id="Path_284" data-name="Path 284" d="M200.665,345.373H187.09l2.624-6.443h8.327Z" transform="translate(-166.449 -300.262)" fill="#407bff"/>
        <path id="Path_285" data-name="Path 285" d="M200.665,345.373H187.09l2.624-6.443h8.327Z" transform="translate(-166.449 -300.262)" fill="#fafafa" opacity="0.2"/>
        <path id="Path_286" data-name="Path 286" d="M231.8,345.373H211.164l-2.624-6.443h20.631Z" transform="translate(-176.948 -300.262)" fill="#407bff"/>
        <path id="Path_287" data-name="Path 287" d="M231.8,345.373H211.164l-2.624-6.443h20.631Z" transform="translate(-176.948 -300.262)" opacity="0.3"/>
        <path id="Path_288" data-name="Path 288" d="M234.6,345.373H221.02l2.624-6.443h8.327Z" transform="translate(-183.056 -300.262)" fill="#407bff"/>
        <path id="Path_289" data-name="Path 289" d="M234.6,345.373H221.02l2.624-6.443h8.327Z" transform="translate(-183.056 -300.262)" fill="#fafafa" opacity="0.2"/>
        <path id="Path_290" data-name="Path 290" d="M265.725,345.373H245.094l-2.624-6.443H263.1Z" transform="translate(-193.555 -300.262)" fill="#407bff"/>
        <path id="Path_291" data-name="Path 291" d="M265.725,345.373H245.094l-2.624-6.443H263.1Z" transform="translate(-193.555 -300.262)" opacity="0.3"/>
        <path id="Path_292" data-name="Path 292" d="M268.535,345.373H254.96l2.624-6.443h8.327Z" transform="translate(-199.669 -300.262)" fill="#407bff"/>
        <path id="Path_293" data-name="Path 293" d="M268.535,345.373H254.96l2.624-6.443h8.327Z" transform="translate(-199.669 -300.262)" fill="#fafafa" opacity="0.2"/>
        <path id="Path_294" data-name="Path 294" d="M299.2,344.25l-2.165-5.32H276.41l2.624,6.443h19.6C298.833,345,299.017,344.628,299.2,344.25Z" transform="translate(-210.167 -300.262)" fill="#407bff"/>
        <path id="Path_295" data-name="Path 295" d="M299.2,344.25l-2.165-5.32H276.41l2.624,6.443h19.6C298.833,345,299.017,344.628,299.2,344.25Z" transform="translate(-210.167 -300.262)" opacity="0.3"/>
        <path id="Path_296" data-name="Path 296" d="M302.465,345.373H288.89l2.624-6.443h8.327Z" transform="translate(-216.276 -300.262)" fill="#407bff"/>
        <path id="Path_297" data-name="Path 297" d="M302.465,345.373H288.89l2.624-6.443h8.327Z" transform="translate(-216.276 -300.262)" fill="#fafafa" opacity="0.2"/>
        <path id="Path_298" data-name="Path 298" d="M315.241,345.373a58.363,58.363,0,0,0,2.818-6.443H310.34l2.624,6.443Z" transform="translate(-226.775 -300.262)" fill="#407bff"/>
        <path id="Path_299" data-name="Path 299" d="M315.241,345.373a58.363,58.363,0,0,0,2.818-6.443H310.34l2.624,6.443Z" transform="translate(-226.775 -300.262)" opacity="0.3"/>
        <path id="Path_300" data-name="Path 300" d="M161.758,332.748h13.994l-2.6-6.448H155.57A54.668,54.668,0,0,0,161.758,332.748Z" transform="translate(-151.021 -294.08)" fill="#407bff"/>
        <path id="Path_301" data-name="Path 301" d="M161.758,332.748h13.994l-2.6-6.448H155.57A54.668,54.668,0,0,0,161.758,332.748Z" transform="translate(-151.021 -294.08)" opacity="0.3"/>
        <path id="Path_302" data-name="Path 302" d="M165.683,332.748h10.691L173.75,326.3h-8.327l-1.833,4.5Q164.606,331.8,165.683,332.748Z" transform="translate(-154.947 -294.08)" fill="#407bff"/>
        <path id="Path_303" data-name="Path 303" d="M165.683,332.748h10.691L173.75,326.3h-8.327l-1.833,4.5Q164.606,331.8,165.683,332.748Z" transform="translate(-154.947 -294.08)" fill="#fafafa" opacity="0.2"/>
        <path id="Path_304" data-name="Path 304" d="M206.745,332.748H186.114L183.49,326.3h20.631Z" transform="translate(-164.687 -294.08)" fill="#407bff"/>
        <path id="Path_305" data-name="Path 305" d="M206.745,332.748H186.114L183.49,326.3h20.631Z" transform="translate(-164.687 -294.08)" opacity="0.3"/>
        <path id="Path_306" data-name="Path 306" d="M209.545,332.748H195.97l2.624-6.448h8.332Z" transform="translate(-170.795 -294.08)" fill="#407bff"/>
        <path id="Path_307" data-name="Path 307" d="M209.545,332.748H195.97l2.624-6.448h8.332Z" transform="translate(-170.795 -294.08)" fill="#fafafa" opacity="0.2"/>
        <path id="Path_308" data-name="Path 308" d="M240.68,332.748H220.049L217.43,326.3h20.626Z" transform="translate(-181.299 -294.08)" fill="#407bff"/>
        <path id="Path_309" data-name="Path 309" d="M240.68,332.748H220.049L217.43,326.3h20.626Z" transform="translate(-181.299 -294.08)" opacity="0.3"/>
        <path id="Path_310" data-name="Path 310" d="M243.485,332.748H229.91l2.624-6.448h8.327Z" transform="translate(-187.408 -294.08)" fill="#407bff"/>
        <path id="Path_311" data-name="Path 311" d="M243.485,332.748H229.91l2.624-6.448h8.327Z" transform="translate(-187.408 -294.08)" fill="#fafafa" opacity="0.2"/>
        <path id="Path_312" data-name="Path 312" d="M274.61,332.748H253.984L251.36,326.3h20.626Z" transform="translate(-197.906 -294.08)" fill="#407bff"/>
        <path id="Path_313" data-name="Path 313" d="M274.61,332.748H253.984L251.36,326.3h20.626Z" transform="translate(-197.906 -294.08)" opacity="0.3"/>
        <path id="Path_314" data-name="Path 314" d="M277.415,332.748H263.84l2.624-6.448h8.327Z" transform="translate(-204.015 -294.08)" fill="#407bff"/>
        <path id="Path_315" data-name="Path 315" d="M277.415,332.748H263.84l2.624-6.448h8.327Z" transform="translate(-204.015 -294.08)" fill="#fafafa" opacity="0.2"/>
        <path id="Path_316" data-name="Path 316" d="M307.1,329.179l-1.169-2.879H285.29l2.624,6.448h17.869C306.258,331.533,306.682,330.333,307.1,329.179Z" transform="translate(-214.514 -294.08)" fill="#407bff"/>
        <path id="Path_317" data-name="Path 317" d="M307.1,329.179l-1.169-2.879H285.29l2.624,6.448h17.869C306.258,331.533,306.682,330.333,307.1,329.179Z" transform="translate(-214.514 -294.08)" opacity="0.3"/>
        <path id="Path_318" data-name="Path 318" d="M311.35,332.748H297.77l2.624-6.448h8.332Z" transform="translate(-220.622 -294.08)" fill="#407bff"/>
        <path id="Path_319" data-name="Path 319" d="M311.35,332.748H297.77l2.624-6.448h8.332Z" transform="translate(-220.622 -294.08)" fill="#fafafa" opacity="0.2"/>
        <path id="Path_320" data-name="Path 320" d="M322.411,332.748c.842-2.231,1.578-4.411,2.292-6.341a.88.88,0,0,1,.036-.107H319.23l2.624,6.448Z" transform="translate(-231.126 -294.08)" fill="#407bff"/>
        <path id="Path_321" data-name="Path 321" d="M322.411,332.748c.842-2.231,1.578-4.411,2.292-6.341a.88.88,0,0,1,.036-.107H319.23l2.624,6.448Z" transform="translate(-231.126 -294.08)" opacity="0.3"/>
        <path id="Path_322" data-name="Path 322" d="M151.209,320.123h4.845l-2.624-6.443h-6.77A56.787,56.787,0,0,0,151.209,320.123Z" transform="translate(-146.66 -287.903)" fill="#407bff"/>
        <path id="Path_323" data-name="Path 323" d="M151.209,320.123h4.845l-2.624-6.443h-6.77A56.787,56.787,0,0,0,151.209,320.123Z" transform="translate(-146.66 -287.903)" fill="#fafafa" opacity="0.2"/>
        <path id="Path_324" data-name="Path 324" d="M183.175,320.123H162.544l-2.624-6.443h20.631Z" transform="translate(-153.15 -287.903)" fill="#407bff"/>
        <path id="Path_325" data-name="Path 325" d="M183.175,320.123H162.544l-2.624-6.443h20.631Z" transform="translate(-153.15 -287.903)" opacity="0.3"/>
        <path id="Path_326" data-name="Path 326" d="M185.98,320.123H172.4l2.624-6.443h8.332Z" transform="translate(-159.259 -287.903)" fill="#407bff"/>
        <path id="Path_327" data-name="Path 327" d="M185.98,320.123H172.4l2.624-6.443h8.332Z" transform="translate(-159.259 -287.903)" fill="#fafafa" opacity="0.2"/>
        <path id="Path_328" data-name="Path 328" d="M217.11,320.123H196.484l-2.624-6.443h20.626Z" transform="translate(-169.763 -287.903)" fill="#407bff"/>
        <path id="Path_329" data-name="Path 329" d="M217.11,320.123H196.484l-2.624-6.443h20.626Z" transform="translate(-169.763 -287.903)" opacity="0.3"/>
        <path id="Path_330" data-name="Path 330" d="M219.915,320.123H206.34l2.624-6.443h8.327Z" transform="translate(-175.871 -287.903)" fill="#407bff"/>
        <path id="Path_331" data-name="Path 331" d="M219.915,320.123H206.34l2.624-6.443h8.327Z" transform="translate(-175.871 -287.903)" fill="#fafafa" opacity="0.2"/>
        <path id="Path_332" data-name="Path 332" d="M251.04,320.123H230.414l-2.624-6.443h20.626Z" transform="translate(-186.37 -287.903)" fill="#407bff"/>
        <path id="Path_333" data-name="Path 333" d="M251.04,320.123H230.414l-2.624-6.443h20.626Z" transform="translate(-186.37 -287.903)" opacity="0.3"/>
        <path id="Path_334" data-name="Path 334" d="M253.845,320.123H240.27l2.624-6.443h8.327Z" transform="translate(-192.478 -287.903)" fill="#407bff"/>
        <path id="Path_335" data-name="Path 335" d="M253.845,320.123H240.27l2.624-6.443h8.327Z" transform="translate(-192.478 -287.903)" fill="#fafafa" opacity="0.2"/>
        <path id="Path_336" data-name="Path 336" d="M284.975,320.123H264.344l-2.624-6.443h20.631Z" transform="translate(-202.977 -287.903)" fill="#407bff"/>
        <path id="Path_337" data-name="Path 337" d="M284.975,320.123H264.344l-2.624-6.443h20.631Z" transform="translate(-202.977 -287.903)" opacity="0.3"/>
        <path id="Path_338" data-name="Path 338" d="M287.78,320.123H274.2l2.624-6.443h8.332Z" transform="translate(-209.086 -287.903)" fill="#407bff"/>
        <path id="Path_339" data-name="Path 339" d="M287.78,320.123H274.2l2.624-6.443h8.332Z" transform="translate(-209.086 -287.903)" fill="#fafafa" opacity="0.2"/>
        <path id="Path_340" data-name="Path 340" d="M313.192,320.123q1.179-3.2,2.18-6.443H295.66l2.624,6.443Z" transform="translate(-219.59 -287.903)" fill="#407bff"/>
        <path id="Path_341" data-name="Path 341" d="M313.192,320.123q1.179-3.2,2.18-6.443H295.66l2.624,6.443Z" transform="translate(-219.59 -287.903)" opacity="0.3"/>
        <path id="Path_342" data-name="Path 342" d="M320.424,316.958l-1.333-3.278h-8.327l-2.624,6.443H319.3C319.7,319.076,320.066,318.02,320.424,316.958Z" transform="translate(-225.698 -287.903)" fill="#407bff"/>
        <path id="Path_343" data-name="Path 343" d="M320.424,316.958l-1.333-3.278h-8.327l-2.624,6.443H319.3C319.7,319.076,320.066,318.02,320.424,316.958Z" transform="translate(-225.698 -287.903)" fill="#fafafa" opacity="0.2"/>
        <path id="Path_344" data-name="Path 344" d="M331.99,313.68h-2.4l1.333,3.278Q331.484,315.329,331.99,313.68Z" transform="translate(-236.197 -287.903)" fill="#407bff"/>
        <path id="Path_345" data-name="Path 345" d="M331.99,313.68h-2.4l1.333,3.278Q331.484,315.329,331.99,313.68Z" transform="translate(-236.197 -287.903)" opacity="0.3"/>
      </g>
      <path id="Path_346" data-name="Path 346" d="M189.571,112.41a70.521,70.521,0,1,0,70.521,70.521,70.521,70.521,0,0,0-70.521-70.521Zm-.092,128.2a57.737,57.737,0,1,1,57.742-57.739,57.736,57.736,0,0,1-57.742,57.739Z" transform="translate(-107.834 -101.221)" fill="#407bff"/>
      <path id="Path_347" data-name="Path 347" d="M193.061,253.321a66.881,66.881,0,1,0-66.881-66.881A66.959,66.959,0,0,0,193.061,253.321Zm0-133.251a66.38,66.38,0,1,1,0-.02Z" transform="translate(-111.324 -104.72)" fill="#fafafa" opacity="0.4"/>
    </g>
    <g id="freepik--safe-door--inject-39" transform="translate(2752.572 1586.953)">
      <path id="Path_391" data-name="Path 391" d="M291.372,251.164c-16.307-2.456-28.692-32.935-28.692-68.234s12.386-65.778,28.692-68.234l15.2-2.287V253.452Z" transform="translate(-262.68 -112.41)" fill="#407bff"/>
      <path id="Path_392" data-name="Path 392" d="M291.372,251.164c-16.307-2.456-28.692-32.935-28.692-68.234s12.386-65.778,28.692-68.234l15.2-2.287V253.452Z" transform="translate(-262.68 -112.41)" opacity="0.3"/>
      <ellipse id="Ellipse_43" data-name="Ellipse 43" cx="26.635" cy="70.521" rx="26.635" ry="70.521" transform="translate(17.256 0)" fill="#407bff"/>
      <path id="Path_393" data-name="Path 393" d="M344.169,182c-8.169,0-14.749,15.668-14.749,35s6.6,34.992,14.749,34.992,14.75-15.663,14.75-34.992S352.318,182,344.169,182Zm11.742,35a40.985,40.985,0,0,1-2.369,14.407l-4.258-14.688,4.176-14.382a40.512,40.512,0,0,1,2.471,14.658Zm-8.98-21.295c1.8,0,3.472,1.256,4.876,3.416l-3.814,13.228-4.4-15.112a4.865,4.865,0,0,1,3.359-1.537ZM337.961,217c0-7.2,1.506-13.555,3.809-17.409l4.983,17.129L341.7,234.238c-2.251-3.86-3.717-10.144-3.717-17.246Zm8.97,21.295a4.932,4.932,0,0,1-3.431-1.664l4.513-15.556,3.936,13.6c-1.43,2.292-3.145,3.615-5,3.615Z" transform="translate(-295.347 -146.472)" fill="#fafafa" opacity="0.2"/>
      <path id="Path_394" data-name="Path 394" d="M326.243,253.378c-12,0-24.843-27.62-24.843-68.734s12.845-68.734,24.843-68.734,24.848,27.62,24.848,68.734S338.246,253.378,326.243,253.378Zm0-136.957c-11.742,0-24.332,27.411-24.332,68.223s12.559,68.223,24.332,68.223,24.337-27.416,24.337-68.223S338,116.421,326.243,116.421Z" transform="translate(-281.632 -114.123)" fill="#fafafa" opacity="0.4"/>
    </g>
    <g id="Group_388" data-name="Group 388" transform="translate(-222.08 7.617)">
      <path id="Path_348" data-name="Path 348" d="M221.156,155.771c3.561.843,7.209,1.686,10.814,2.453s7.228,1.466,10.776,1.944l1.315.151.321.031h.05a5.133,5.133,0,0,0,1.592-.711,28.308,28.308,0,0,0,3.963-3.145c2.617-2.422,5.171-5.165,7.631-7.895l2.875,1.994a62.011,62.011,0,0,1-6.574,9.644,28.636,28.636,0,0,1-4.435,4.366,10.638,10.638,0,0,1-3.416,1.837,6.6,6.6,0,0,1-1.258.252,5.929,5.929,0,0,1-.755,0h-.384l-1.5-.075a102.645,102.645,0,0,1-11.537-1.516c-3.774-.692-7.473-1.51-11.216-2.516Z" transform="translate(2655.462 1430.013)" fill="#7f3e3b"/>
      <path id="Path_349" data-name="Path 349" d="M212.483,165.489c2.516,3.636,17.614,5.033,17.614,5.033l.925-9.675a69.521,69.521,0,0,0-11.82-3.007C208.539,156.317,209.741,161.5,212.483,165.489Z" transform="translate(2658.738 1426.687)" fill="#407bff"/>
      <path id="Path_350" data-name="Path 350" d="M212.483,165.489c2.516,3.636,17.614,5.033,17.614,5.033l.925-9.675a69.521,69.521,0,0,0-11.82-3.007C208.539,156.317,209.741,161.5,212.483,165.489Z" transform="translate(2658.738 1426.687)" fill="#fff" opacity="0.2"/>
      <path id="Path_351" data-name="Path 351" d="M279.2,147.894l1.2-4.454,4.146,1.78s-1.749,4.8-3.328,4.561Z" transform="translate(2633.288 1431.927)" fill="#7f3e3b"/>
      <path id="Path_352" data-name="Path 352" d="M284.532,138.934l3.428-.214-2.7,4.749-4.146-1.78Z" transform="translate(2632.579 1433.677)" fill="#7f3e3b"/>
      <path id="Path_353" data-name="Path 353" d="M214.308,158.857s5.989,14.085,1.673,40.311H191.032c-.3-3.831,1.453-22.508-2.862-40.55a63.683,63.683,0,0,1,8.31-1.057,93.146,93.146,0,0,1,10.606,0A48.094,48.094,0,0,1,214.308,158.857Z" transform="translate(2667.054 1426.745)" fill="#407bff"/>
      <path id="Path_354" data-name="Path 354" d="M214.308,158.857s5.989,14.085,1.673,40.311H191.032c-.3-3.831,1.453-22.508-2.862-40.55a63.683,63.683,0,0,1,8.31-1.057,93.146,93.146,0,0,1,10.606,0A48.094,48.094,0,0,1,214.308,158.857Z" transform="translate(2667.054 1426.745)" fill="#fff" opacity="0.2"/>
      <path id="Path_355" data-name="Path 355" d="M189.41,165.07a122.378,122.378,0,0,1,2.063,18.708,71.161,71.161,0,0,0,1.849-11.2C193.587,168.391,191.964,165.743,189.41,165.07Z" transform="translate(2666.594 1423.903)" opacity="0.3"/>
      <path id="Path_356" data-name="Path 356" d="M213.643,182.749c-2.214-2.434-6.02-7.285-7.2-11.644h0l5.938-3.145,5.529,2.831c-.057,3.705-2.032,8.725-3.447,11.782C214.278,182.944,213.9,183.039,213.643,182.749Z" transform="translate(2660.277 1422.831)" fill="#fff"/>
      <path id="Path_357" data-name="Path 357" d="M202.029,138.67c.786,3.416,1.667,9.662-.629,11.952,0,0,1,2.824,7.341,2.824,6.97,0,3.265-2.824,3.265-2.824-3.837-.906-3.837-3.73-3.265-6.379Z" transform="translate(2662.146 1433.696)" fill="#7f3e3b"/>
      <path id="Path_358" data-name="Path 358" d="M206.685,142.28l3.969,3.284a10.914,10.914,0,0,0-.264,1.887c-1.459-.208-3.51-1.805-3.718-3.328A4.958,4.958,0,0,1,206.685,142.28Z" transform="translate(2660.22 1432.357)" opacity="0.2"/>
      <path id="Path_359" data-name="Path 359" d="M216.159,130.1c1.032-.881,1.5-6.146-.535-8.669s-3.774,3.592-3.774,3.592S212.781,132.992,216.159,130.1Z" transform="translate(2658.27 1440.317)" fill="#263238"/>
      <path id="Path_360" data-name="Path 360" d="M199.806,128.238c1.422,4.4,2.026,7.064,4.894,8.87a6.033,6.033,0,0,0,9.291-5.272c-.057-4.234-2.372-10.751-7.247-11.562a6.1,6.1,0,0,0-6.939,7.964Z" transform="translate(2662.859 1440.562)" fill="#7f3e3b"/>
      <path id="Path_361" data-name="Path 361" d="M208.908,116.7a1.7,1.7,0,0,0,.208-.874,1.73,1.73,0,0,0-3.145-.981,3.68,3.68,0,0,0-2.875-1.258,3.642,3.642,0,0,0-1.629.447,1.692,1.692,0,0,0-1.164-.4,1.736,1.736,0,0,0-1.661,1.522,3.014,3.014,0,0,0-.535-.038,2.8,2.8,0,0,0-2.7,2.887v.038a2.654,2.654,0,0,0-.321,0A2.271,2.271,0,0,0,192.9,120.4v.038a1.724,1.724,0,0,0-.9,1.592,1.755,1.755,0,0,0,1.126,1.573,2.252,2.252,0,0,0,2.063,2.063c.245,2.2,1.038,5.611,3.611,3.85.981-.673,1.887-4.756.912-7.587h.239a2.774,2.774,0,0,0,2.158-1.164,3.686,3.686,0,0,0,3.233-.459,1.8,1.8,0,0,0,.629.1,1.761,1.761,0,0,0,.83-.252,2.076,2.076,0,0,0,1.214.359,2.038,2.038,0,0,0,.893-3.837Z" transform="translate(2665.634 1443)" fill="#263238"/>
      <path id="Path_362" data-name="Path 362" d="M198.368,139.54a4.6,4.6,0,0,0,3.145,1.3c1.554,0,1.887-1.472,1.051-2.7-.742-1.1-2.441-2.434-3.812-1.843A1.918,1.918,0,0,0,198.368,139.54Z" transform="translate(2663.537 1434.631)" fill="#7f3e3b"/>
      <path id="Path_363" data-name="Path 363" d="M211.4,132.148c.088.365.359.629.629.566s.359-.4.264-.761-.365-.629-.629-.56S211.3,131.771,211.4,132.148Z" transform="translate(2658.451 1436.399)" fill="#263238"/>
      <path id="Path_364" data-name="Path 364" d="M217.982,130.7c.094.365.365.629.629.566s.359-.39.264-.755-.365-.629-.629-.566S217.9,130.335,217.982,130.7Z" transform="translate(2656.007 1436.936)" fill="#263238"/>
      <path id="Path_365" data-name="Path 365" d="M216,131.9a14.311,14.311,0,0,0,2.554,2.736,2.151,2.151,0,0,1-1.673.711Z" transform="translate(2656.731 1436.207)" fill="#630f0f"/>
      <path id="Path_366" data-name="Path 366" d="M213.616,138.936a3.2,3.2,0,0,1-2.095-.755.109.109,0,1,1,.157-.151,3.145,3.145,0,0,0,2.667.629.113.113,0,0,1,.132.082.107.107,0,0,1-.088.132A3.386,3.386,0,0,1,213.616,138.936Z" transform="translate(2658.404 1433.946)" fill="#263238"/>
      <path id="Path_367" data-name="Path 367" d="M208.669,130.017a.221.221,0,0,1-.088,0,.214.214,0,0,1-.113-.289A2.126,2.126,0,0,1,210,128.469a.233.233,0,0,1,.252.189.226.226,0,0,1-.189.252,1.692,1.692,0,0,0-1.2,1.013.22.22,0,0,1-.2.094Z" transform="translate(2659.532 1437.48)" fill="#263238"/>
      <path id="Path_368" data-name="Path 368" d="M219.14,127.556a.214.214,0,0,1-.17-.082,1.887,1.887,0,0,0-1.472-.7.221.221,0,1,1-.038-.44,2.315,2.315,0,0,1,1.849.862.226.226,0,0,1-.031.315A.22.22,0,0,1,219.14,127.556Z" transform="translate(2656.264 1438.274)" fill="#263238"/>
      <path id="Path_369" data-name="Path 369" d="M188.735,168.1l-.906,1.956c-.3.673-.6,1.352-.887,2.032-.579,1.359-1.126,2.736-1.654,4.108s-.994,2.755-1.441,4.139a40.862,40.862,0,0,0-1.082,4.133v.082a.63.63,0,0,0,0-.1.68.68,0,0,0-.057-.2c-.05-.12-.107-.145-.082-.075a2.73,2.73,0,0,0,.868.786,17.613,17.613,0,0,0,3.586,1.667,77.52,77.52,0,0,0,8.568,2.4l-.289,3.491a44.25,44.25,0,0,1-9.681-.755,20.338,20.338,0,0,1-5.064-1.623,9.021,9.021,0,0,1-2.768-2.044A5.876,5.876,0,0,1,176.663,186a5.7,5.7,0,0,1-.239-1.346,6.116,6.116,0,0,1,0-.679l.031-.327v-.17a49.067,49.067,0,0,1,2.233-9.625q.767-2.3,1.692-4.536c.315-.742.629-1.478.975-2.214s.679-1.441,1.088-2.227Z" transform="translate(2671.414 1423.974)" fill="#7f3e3b"/>
      <path id="Path_370" data-name="Path 370" d="M182.914,159.279c-4.4.629-8.914,16.8-8.914,16.8l10.612,4.039s2.667-6.951,4.492-12.349C191.016,162.116,187.619,158.587,182.914,159.279Z" transform="translate(2672.31 1426.083)" fill="#407bff"/>
      <path id="Path_371" data-name="Path 371" d="M182.914,159.279c-4.4.629-8.914,16.8-8.914,16.8l10.612,4.039s2.667-6.951,4.492-12.349C191.016,162.116,187.619,158.587,182.914,159.279Z" transform="translate(2672.31 1426.083)" fill="#fff" opacity="0.2"/>
      <path id="Path_372" data-name="Path 372" d="M198.81,406h4.668l.6-10.8H199.42Z" transform="translate(2663.107 1338.54)" fill="#7f3e3b"/>
      <path id="Path_373" data-name="Path 373" d="M199.585,395.2h4.668l-.315,5.567H199.27Z" transform="translate(2662.937 1338.54)" opacity="0.2"/>
      <path id="Path_374" data-name="Path 374" d="M203.174,411.51h-5.24a.327.327,0,0,0-.346.315l-.258,4.146a.824.824,0,0,0,.818.83c1.824-.031,2.7-.138,5.033-.138,1.415,0,7.442.151,9.4.151s1.887-1.937,1.076-2.114c-3.724-.786-8.329-1.887-9.65-2.906A1.334,1.334,0,0,0,203.174,411.51Z" transform="translate(2663.656 1332.491)" fill="#263238"/>
      <path id="Path_375" data-name="Path 375" d="M208.46,412.1a1.259,1.259,0,0,0,.874-.245.585.585,0,0,0,.132-.585.4.4,0,0,0-.245-.3c-.572-.226-1.887.673-2.038.78a.113.113,0,0,0-.044.107.119.119,0,0,0,.082.082,5.974,5.974,0,0,0,1.239.164Zm.541-.962a.37.37,0,0,1,.145,0,.2.2,0,0,1,.12.151.415.415,0,0,1-.075.4c-.22.214-.843.239-1.68.075A3.775,3.775,0,0,1,209,411.138Z" transform="translate(2660.018 1332.705)" fill="#407bff"/>
      <path id="Path_376" data-name="Path 376" d="M207.239,411.3h.05c.466-.277,1.157-1.258,1.051-1.755a.415.415,0,0,0-.39-.327.56.56,0,0,0-.459.151c-.465.453-.365,1.793-.359,1.849a.1.1,0,0,0,.057.082.069.069,0,0,0,.05,0Zm.629-1.887h.05a.2.2,0,0,1,.214.164c.075.352-.421,1.095-.805,1.422a2.4,2.4,0,0,1,.3-1.491.34.34,0,0,1,.245-.094Z" transform="translate(2660.025 1333.342)" fill="#407bff"/>
      <path id="Path_377" data-name="Path 377" d="M263.952,387.243l4.592-.8L267.292,375.7l-4.592.8Z" transform="translate(2639.408 1345.774)" fill="#7f3e3b"/>
      <path id="Path_378" data-name="Path 378" d="M262.7,376.509l4.6-.8.642,5.536-4.6.8Z" transform="translate(2639.408 1345.77)" opacity="0.2"/>
      <path id="Path_379" data-name="Path 379" d="M268.192,391.419l-5.177-.793a.333.333,0,0,0-.39.264l-.881,4.057a.83.83,0,0,0,.686.944c1.805.245,2.686.271,4.963.629,1.4.214,7.335,1.258,9.272,1.56s2.17-1.623,1.378-1.925c-3.56-1.334-7.951-3.1-9.1-4.322A1.258,1.258,0,0,0,268.192,391.419Z" transform="translate(2639.766 1340.239)" fill="#263238"/>
      <path id="Path_380" data-name="Path 380" d="M221.3,223.79s14.469,33.825,17.394,46.872c3.215,14.286,8.662,52.565,8.662,52.565l-8.417,1.466s-7.75-35.756-12.216-49.539C221.869,260.2,202.5,223.79,202.5,223.79Z" transform="translate(2661.738 1402.122)" fill="#263238"/>
      <path id="Path_381" data-name="Path 381" d="M213.22,235.67l-.34,5.114c2.183,4.3,4.7,9.323,7.159,14.418C221.133,250.157,218.34,238.035,213.22,235.67Z" transform="translate(2657.888 1397.715)" opacity="0.3"/>
      <path id="Path_382" data-name="Path 382" d="M209.31,223.786s-.082,35.637-.837,48.992c-.83,14.619-4.976,63.064-4.976,63.064h-8.543s.258-47.262-.258-61.736c-.56-15.727-2.007-50.325-2.007-50.325Z" transform="translate(2665.377 1402.126)" fill="#263238"/>
      <path id="Path_383" data-name="Path 383" d="M195.487,400.13h9.228l.51-3.24-10.185.5Z" transform="translate(2664.505 1337.913)" fill="#407bff"/>
      <path id="Path_384" data-name="Path 384" d="M195.487,400.13h9.228l.51-3.24-10.185.5Z" transform="translate(2664.505 1337.913)" opacity="0.3"/>
      <path id="Path_385" data-name="Path 385" d="M259.346,381.413l9.09-1.579-.05-3.284L258.44,378.8Z" transform="translate(2640.989 1345.458)" fill="#407bff"/>
      <path id="Path_386" data-name="Path 386" d="M259.346,381.413l9.09-1.579-.05-3.284L258.44,378.8Z" transform="translate(2640.989 1345.458)" opacity="0.3"/>
      <path id="Path_387" data-name="Path 387" d="M273.694,392.91a1.258,1.258,0,0,0,.9-.107.629.629,0,0,0,.226-.56.415.415,0,0,0-.2-.34c-.528-.308-1.969.384-2.133.465a.1.1,0,0,0-.057.094.094.094,0,0,0,.063.094A5.526,5.526,0,0,0,273.694,392.91Zm.679-.868a.3.3,0,0,1,.138.044.17.17,0,0,1,.094.17.4.4,0,0,1-.132.377c-.252.182-.868.113-1.673-.182a3.775,3.775,0,0,1,1.573-.409Z" transform="translate(2635.799 1339.792)" fill="#407bff"/>
      <path id="Path_388" data-name="Path 388" d="M272.521,391.834a.088.088,0,0,0,.057,0c.5-.2,1.334-1.057,1.3-1.573a.415.415,0,0,0-.34-.384.547.547,0,0,0-.472.082c-.535.377-.629,1.717-.629,1.774a.088.088,0,0,0,.044.088.056.056,0,0,0,.038.013Zm.912-1.774h.05c.157.044.182.126.189.2,0,.359-.579,1.013-1.013,1.258a2.409,2.409,0,0,1,.528-1.428.321.321,0,0,1,.233-.025Z" transform="translate(2635.796 1340.523)" fill="#407bff"/>
      <path id="Path_389" data-name="Path 389" d="M205.669,202.591l3.825-1.051.528,4.838s-3.774,1.132-4.712-.849Z" transform="translate(2660.696 1410.375)" fill="#7f3e3b"/>
      <path id="Path_390" data-name="Path 390" d="M215.432,202.207l-.233,4.359-2.711-.189-.528-4.838Z" transform="translate(2658.229 1410.375)" fill="#7f3e3b"/>
    </g>
  </g>
</svg>
